<?xml version="1.0" standalone="no"?>
<!DOCTYPE svg PUBLIC "-//W3C//DTD SVG 20010904//EN"
 "http://www.w3.org/TR/2001/REC-SVG-20010904/DTD/svg10.dtd">
<svg version="1.0" xmlns="http://www.w3.org/2000/svg"
 width="371.000000pt" height="237.000000pt" viewBox="0 0 371.000000 237.000000"
 preserveAspectRatio="xMidYMid meet">

<g transform="translate(0.000000,237.000000) scale(0.100000,-0.100000)"
fill="#000000" stroke="none">
<path d="M1445 2117 c-25 -21 -33 -52 -100 -367 -41 -190 -99 -460 -129 -600
-75 -347 -71 -321 -46 -353 17 -21 30 -27 59 -27 71 0 65 -16 176 510 89 424
96 453 105 443 4 -4 24 -62 43 -128 19 -66 69 -230 110 -365 42 -135 88 -284
102 -333 29 -95 53 -127 98 -127 65 0 66 2 146 315 100 391 170 639 175 625 5
-14 50 -199 161 -675 60 -255 65 -265 134 -265 32 0 71 37 71 66 0 10 -30 143
-66 294 -36 151 -101 428 -144 614 -44 187 -87 350 -95 363 -28 42 -104 43
-126 2 -11 -21 -132 -471 -210 -781 -22 -90 -45 -167 -50 -173 -5 -5 -9 -7 -9
-4 0 5 -52 180 -210 704 -76 253 -93 285 -145 285 -13 0 -36 -10 -50 -23z"/>
<path d="M3064 320 c0 -107 2 -151 3 -97 2 53 2 141 0 195 -1 53 -3 9 -3 -98z"/>
</g>
</svg>
